# xmcd
#
# Track frame offsets:
#	150
#	22367
#	41605
#	66367
#	88345
#	122335
#	146747
#	177007
#	197412
#	235240
#	254302
#	285420
#
# Disc length: 4188 seconds
#
# Revision: 0
# Processed by: cddbd v1.4PL0 Copyright (c) Steve Scherf et al.
# Submitted via: dBpowerAMP V4.0
#
DISCID=ab105a0c
DTITLE=Spirit of the street 2 - Spirit of the street 2
DYEAR=1900
DGENRE=Acid Jazz
TTITLE0=Sambada - Mardi Gras
TTITLE1=The Grey Boy Allstars - Toys R Us
TTITLE2=Baby Buddah Heads - Latin Joint
TTITLE3=Neos - Indian Diary
TTITLE4=The AKA Project - The adventures of F-F Man
TTITLE5=Bum's Rush - Full Metal Boob Tube
TTITLE6=Paolo Achenza Trio - Ombre
TTITLE7=Yada Yada - Fuse One
TTITLE8=Down to the bone - Joy is a good Groove
TTITLE9=Man Sueto - Sentimental Song
TTITLE10=The Millenium Project - Shades Of Youth
TTITLE11=Mo Nazam - Jihad
EXTD=
EXTT0=
EXTT1=
EXTT2=
EXTT3=
EXTT4=
EXTT5=
EXTT6=
EXTT7=
EXTT8=
EXTT9=
EXTT10=
EXTT11=
PLAYORDER=
